<svg width="272" height="115" viewBox="0 0 272 115" fill="none" xmlns="http://www.w3.org/2000/svg">
<line x1="164.5" y1="2.18557e-08" x2="164.5" y2="115" stroke="white"/>
<path d="M44.1332 81.1351L45.5244 111.93C45.5244 112.118 45.3809 112.272 45.1932 112.272H37.4972C37.3095 112.272 37.1439 112.118 37.1328 111.93L36.382 95.2573L30.7729 104.996C30.6735 105.162 30.4416 105.294 30.2539 105.294H26.4115C26.2238 105.294 25.9919 105.162 25.8925 104.996L20.2834 95.2573L19.5326 111.93C19.5326 112.118 19.3669 112.272 19.1682 112.272H11.4722C11.2845 112.272 11.1299 112.118 11.141 111.93L12.5322 81.1351C12.5322 80.9474 12.6978 80.7929 12.8966 80.7929H20.5925C20.7803 80.7929 21.0121 80.9254 21.1005 81.102L28.3548 94.7936C28.3548 94.7936 28.3658 94.7384 28.3769 94.7163L35.587 81.091C35.6754 80.9254 35.9072 80.7818 36.0949 80.7818H43.7909C43.9786 80.7818 44.1442 80.9364 44.1553 81.1241L44.1332 81.1351ZM62.5947 75.2169H70.633C70.8207 75.2169 70.9753 75.0623 70.9753 74.8746V44.0796C70.9753 43.8919 70.8207 43.7373 70.633 43.7373H62.5947C62.407 43.7373 62.2524 43.8919 62.2524 44.0796V74.8746C62.2524 75.0623 62.407 75.2169 62.5947 75.2169ZM0.342289 75.2169C0.154582 75.2169 0 75.0623 0 74.8746V44.0796C0 43.8919 0.154582 43.7373 0.342289 43.7373H12.3445C22.6242 43.7373 29.2602 49.3354 29.2602 59.6814C29.2602 69.5415 22.3813 75.25 12.2893 75.25L0.353331 75.2279L0.342289 75.2169ZM12.1789 51.4554H8.73389V67.5209H12.1789C17.3463 67.5209 20.3938 64.2305 20.3938 59.4936C20.3938 54.4476 17.3574 51.4664 12.1789 51.4664V51.4554ZM59.4258 75.2169H51.0342C50.8465 75.2169 50.6477 75.0733 50.5925 74.8856L48.5609 68.2386H38.4689L36.4372 74.8856C36.382 75.0623 36.1833 75.2169 35.9956 75.2169H27.604C27.4162 75.2169 27.3058 75.0733 27.3721 74.8966L38.4026 44.0575C38.4689 43.8808 38.6787 43.7373 38.8664 43.7373H48.1523C48.34 43.7373 48.5498 43.8808 48.6161 44.0575L59.6466 74.8966C59.7129 75.0733 59.6025 75.2169 59.4148 75.2169H59.4258ZM43.5149 51.6983L40.0699 61.6247H46.9488L43.5149 51.6983ZM57.8248 80.7929H49.7865C49.5988 80.7929 49.4442 80.9474 49.4442 81.1351V111.93C49.4442 112.118 49.5988 112.272 49.7865 112.272H57.8248C58.0125 112.272 58.1671 112.118 58.1671 111.93V81.1351C58.1671 80.9474 58.0125 80.7929 57.8248 80.7929ZM81.0231 104.532H70.9753V81.1462C70.9753 80.9585 70.8207 80.8039 70.633 80.8039H62.5947C62.407 80.8039 62.2524 80.9585 62.2524 81.1462V111.941C62.2524 112.129 62.407 112.283 62.5947 112.283H81.0231C81.2108 112.283 81.3654 112.129 81.3654 111.941V104.875C81.3654 104.687 81.2108 104.532 81.0231 104.532ZM115.55 109.49C113.96 109.656 111.652 109.258 108.848 106.1C106.397 103.351 103.901 100.16 100.821 96.2069L110.758 81.0799C110.857 80.9254 110.791 80.7929 110.604 80.7929H101.859C101.671 80.7929 101.428 80.9254 101.34 81.091L93.3234 94.2857V81.1462C93.3234 80.9585 93.1689 80.8039 92.9812 80.8039H84.9429C84.7552 80.8039 84.6006 80.9585 84.6006 81.1462V111.941C84.6006 112.129 84.7552 112.283 84.9429 112.283H92.9812C93.1689 112.283 93.3234 112.129 93.3234 111.941V100.049L100.765 109.49C102.698 111.952 105.723 113.056 108.749 113.056C111.641 113.056 114.402 111.93 115.793 109.876C115.915 109.7 115.793 109.479 115.561 109.501L115.55 109.49ZM133.945 44.0244L116.919 71.2308C114.711 74.5764 112.591 76.1223 109.422 76.1223C107.048 76.1223 105.491 75.6475 104.21 74.3004C102.709 75.515 101.24 76.1223 99.0209 76.1223C94.4607 76.1223 92.7603 73.5385 90.9826 71.0211L89.2381 68.2386H84.5454V74.8746C84.5454 75.0623 84.3908 75.2169 84.2031 75.2169H76.1648C75.9771 75.2169 75.8225 75.0623 75.8225 74.8746V44.0796C75.8225 43.8919 75.9771 43.7373 76.1648 43.7373H88.8958C96.7243 43.7373 101.66 48.5514 101.66 56.0597C101.66 60.4653 100.059 63.7557 97.3095 65.7984L99.7828 69.7954C100.975 71.6725 102.289 72.7325 104.233 72.7325C106.33 72.7325 107.534 71.6725 108.682 69.7954L113.099 62.7288L101.406 44.0354C101.307 43.8698 101.373 43.7483 101.572 43.7483H110.592C110.78 43.7483 111.023 43.8808 111.111 44.0465L117.825 55.1101L124.527 44.0465C124.626 43.8808 124.858 43.7483 125.046 43.7483H133.791C133.979 43.7483 134.056 43.8808 133.956 44.0354L133.945 44.0244ZM93.0805 56.0597C93.0805 52.7141 91.4243 50.4948 88.0566 50.4948H84.5454V61.6247H88.0566C91.4243 61.6247 93.0805 59.4053 93.0805 56.0597Z" fill="white"/>
<path d="M124.56 23.4317C123.467 23.244 122.959 24.4255 121.126 26.9981C119.459 29.35 116.069 33.2918 114.612 32.4968C113.143 31.6908 114.148 28.5771 115.153 26.3909C115.76 25.0438 116.146 23.5973 115.396 23.4538C114.623 23.244 113.32 25.0107 112.459 27.1638C110.769 30.3989 107.766 33.5237 106.176 33.5237C105.282 33.5237 104.972 33.1041 104.972 32.3423C104.972 29.35 108.086 26.2915 108.086 24.6463C108.086 24.1163 107.865 23.6857 107.424 23.6857C106.629 23.6857 105.856 24.9002 103.957 24.9002C103.338 24.9002 102.742 24.7567 102.245 24.58C102.687 22.9017 102.665 21.3669 101.318 21.3669C100.213 21.3669 99.4074 22.2834 99.4074 23.8955C99.4074 24.7236 99.827 25.4192 100.412 25.9271C99.1976 29.6592 96.5697 33.3912 94.4387 33.0268C93.5443 32.8723 92.8377 31.3596 93.2241 29.5819C94.781 27.9146 96.7133 25.0327 95.841 24.039C94.5933 22.5925 91.5127 26.8546 90.9385 30.0125C89.5362 32.0552 87.7585 33.5679 86.4004 33.1373C85.7269 32.9275 85.495 32.3423 85.5281 31.5804C85.6165 29.1181 86.9083 27.6496 87.8469 26.3356C88.5314 25.375 89.3485 23.9065 88.5535 23.498C87.9131 23.1667 86.8421 23.6746 86.1244 24.6132C86.1023 24.6463 86.0802 24.6794 86.0581 24.7125C84.7883 26.1148 82.58 27.3625 80.2061 28.1023C80.2392 27.7931 80.2613 27.495 80.2613 27.1969C80.2613 24.3592 78.8038 22.3165 76.5955 21.378C78.1082 18.739 79.8417 16.1663 81.4979 14.1347C84.1038 13.2624 85.0423 11.3743 85.0423 10.6345C85.0423 10.1376 84.8104 9.77327 84.3025 9.77327C83.1763 9.77327 81.0342 11.5731 79.378 13.2735C78.2076 13.4501 77.0261 13.5274 75.7122 13.5274C70.103 13.5274 66.7685 11.021 64.9025 11.021C64.0412 11.021 63.6658 11.6393 63.6658 12.2355C63.6658 13.417 64.9687 15.2499 64.9687 18.9378C64.9687 20.318 64.7479 21.8969 64.3725 23.509C63.7431 22.3938 62.6168 21.8528 61.1594 21.8528C58.0788 21.8528 55.3846 24.9223 54.1921 28.3673C52.8671 31.0835 51.3765 33.5679 49.7534 33.5679C48.8701 33.5679 48.4505 32.9164 48.4505 31.735C48.4505 29.0188 50.4601 25.4634 50.4601 23.4096C50.4601 21.643 49.4553 20.5167 47.2138 20.5167C44.7847 20.5167 41.3287 23.1998 38.9547 26.4681C33.8094 32.5521 26.6434 36.3393 20.0295 36.1185C14.9503 35.997 11.2293 32.5189 11.2293 27.3736C11.1741 15.4376 22.558 3.58999 35.1343 3.58999C39.2087 3.58999 41.947 5.70997 42.0022 10.0824C42.0022 18.1097 33.2794 23.8292 27.4936 23.8292C24.8325 23.8292 23.2205 22.1619 23.2205 19.6224C23.2205 15.3161 27.4163 11.7718 32.2525 10.0051C32.7825 9.88369 32.9039 9.29849 31.8992 9.29849C26.8752 9.53036 20.438 15.0843 20.438 20.3953C20.438 24.2377 23.4192 25.894 26.7207 25.894C34.2841 25.894 44.7736 18.1097 44.7736 9.72911C44.7736 5.77622 42.3445 2 35.7858 2C20.3828 2 7.16602 16.1553 7.16602 27.6717C7.16602 37.4766 15.7343 38.7795 19.389 38.7795C26.2459 38.7795 32.8487 34.9591 36.5918 31.0173C36.371 31.7791 36.2385 32.5079 36.2385 33.2146C36.2385 35.1689 37.2433 36.4608 39.0762 36.4608C41.2624 36.4608 43.9234 34.2745 45.8116 31.735C45.5134 33.5016 46.1649 36.1627 48.4726 36.1627C50.4601 36.1627 52.2488 34.0758 53.5517 31.9889C53.5517 31.9889 53.5517 32 53.5517 32.011C53.5517 34.1089 54.8767 36.0302 57.0629 36.0302C63.202 36.0302 67.3095 25.8719 67.3095 17.7232C67.3095 16.3982 67.2101 15.1616 67.0004 14.0684C69.7607 14.8193 72.6978 15.0953 75.1932 15.0953C76.1538 15.0953 77.0482 15.0511 77.8432 14.9849C76.5955 16.5086 75.2595 18.5734 74.0559 20.8038C73.9013 20.8038 73.7468 20.7817 73.5922 20.7817C70.8428 20.7817 68.6566 22.703 68.6566 25.0879C68.6566 26.6006 69.4847 27.7711 70.7324 28.6102C70.3349 29.9904 70.103 31.2491 70.103 32.265C70.103 34.6279 71.2514 36.1074 73.2941 36.1074C76.1428 36.1074 78.8811 32.9606 79.8748 29.6702C81.4648 29.2285 82.9002 28.5219 84.0817 27.76C83.4192 29.0408 82.9665 30.3769 82.9113 31.7571C82.8671 33.1814 83.4192 35.2572 85.4619 35.3235C87.0629 35.3787 89.0504 34.5395 90.9385 32.2318C91.2256 33.8108 92.12 34.661 93.3345 34.8929C96.9562 35.5774 99.9926 31.3706 101.549 26.6117C102.013 26.7994 102.499 26.8988 102.952 26.8988C103.482 26.8988 103.979 26.8325 104.453 26.7221C103.25 28.566 102.223 31.0614 102.223 32.9496C102.223 35.0695 103.449 35.6768 104.884 35.6437C107.368 35.5995 109.687 33.3581 111.597 30.7081C111.597 30.8075 111.597 30.9069 111.597 31.0062C111.597 32.7177 111.951 34.8929 113.717 35.1137C115.186 35.3014 116.908 34.2966 119.304 31.6356C119.735 31.1498 119.945 31.3375 119.614 31.9779C117.77 35.5112 114.788 40.8774 114.722 43.9911C114.7 45.029 115.109 45.7578 115.881 45.9897C116.334 46.1222 116.754 46.067 116.853 45.813C116.952 45.5701 116.82 45.1395 116.82 44.5322C116.82 41.838 118.542 37.6643 123.964 27.5171C124.726 26.0927 125.686 23.6084 124.571 23.4207L124.56 23.4317ZM40.4453 33.7335C39.7387 33.7335 39.2087 33.325 39.2087 32.3864C39.2087 29.3721 44.4645 21.9963 47.0592 21.9963C47.8322 21.9963 48.064 22.4048 48.064 23.1778C48.064 26.2473 43.0401 33.7445 40.4453 33.7445V33.7335ZM57.615 34.0427C56.5219 34.0427 56.0361 32.9275 56.0361 31.6246C56.0361 28.29 58.5425 23.8623 61.4685 23.8623C62.3298 23.8623 63.3566 24.2488 63.8645 25.4413C62.4843 29.9131 60.011 34.0427 57.615 34.0427ZM77.9205 27.0092C77.9205 27.5281 77.8542 28.0913 77.7217 28.6654C77.0924 28.7538 76.4851 28.809 75.8888 28.809C74.9834 28.809 74.1111 28.6765 73.3382 28.4225C73.9124 26.7111 74.7515 24.834 75.7453 22.9569C77.0703 23.763 77.9205 25.2094 77.9205 27.0092ZM70.4785 25.1542C70.4785 23.6746 71.6709 22.2834 73.2278 22.2834C73.2499 22.2834 73.272 22.2834 73.2941 22.2834C72.488 23.9065 71.7703 25.5738 71.2182 27.1417C70.7435 26.6006 70.4674 25.9381 70.4674 25.1542H70.4785ZM73.5811 34.2525C72.6647 34.2525 72.5211 33.3691 72.5211 32.5079C72.5211 31.6687 72.6868 30.6971 72.9738 29.6371C74.0891 29.9794 75.3147 30.145 76.5072 30.145C76.7722 30.145 77.0372 30.145 77.2911 30.1229C76.4851 32.2871 75.0165 34.2525 73.5811 34.2525Z" fill="url(#paint0_linear_120_1756)"/>
<path d="M224.995 10.1806C224.542 7.66479 222.312 5.02893 219.127 2.88008C213.795 -0.713638 209.98 -0.702098 208.19 1.58062C206.065 4.28341 195.525 21.7996 195.075 22.5451C193.248 25.5595 193.385 29.1856 198.383 32.7724C202.6 35.8006 205.901 34.6996 208.046 32.5208C208.638 31.9207 213.389 26.3628 215.426 23.9739C216.103 23.1776 216.569 22.2289 216.793 21.2111C217.164 19.5031 217.272 17.9289 217.414 16.1586C217.51 14.7484 217.395 13.5158 216.18 12.7311C214.952 11.9348 213.361 11.644 212.012 11.0946C209.929 10.2476 207.693 8.90886 206.828 6.62383C206.797 6.54766 206.758 6.42303 206.737 6.33763C206.674 6.04219 207.017 5.88755 207.304 6.31455C207.763 7.00929 208.424 7.55861 209.061 8.06409C209.784 8.63419 210.545 9.26661 211.424 9.56205C211.564 9.60821 211.711 9.64514 211.858 9.61975C212.101 9.58051 212.281 9.36586 212.138 9.12813C211.896 8.7219 211.399 8.39415 211.079 8.04562C210.703 7.6394 210.349 7.21009 210.043 6.73693C209.418 5.76983 208.958 4.535 209.161 3.32324C209.511 1.21594 211.464 0.777398 213.181 1.13746C215.165 1.54831 216.989 2.66081 218.651 3.78024C221.973 6.01911 223.784 8.83269 224.108 10.6284C224.204 11.1593 224.171 11.5955 224.017 11.8979C223.929 10.7023 223.32 9.56667 221.766 8.28336C218.032 5.19742 215.209 5.32437 212.038 4.565C211.34 4.39882 210.682 4.09184 210.269 3.72485C210.16 3.62791 210.015 3.7387 210.027 3.89565C210.174 5.72829 211.644 8.05486 215.767 10.5338C215.774 10.5384 215.781 10.5407 215.785 10.5476C216.296 10.8523 216.847 11.1593 217.442 11.4639C218.494 12.0063 219.302 12.8188 219.309 14.6376C219.323 17.2411 219.25 61.5637 219.25 61.5637L222.41 61.6075C222.41 61.6075 222.281 22.3559 222.449 17.8712C222.519 15.9694 223.154 14.6976 223.63 14.0282C224.351 13.1512 224.594 12.6688 224.783 12.3733C225.177 11.7663 225.172 11.12 225.004 10.1806M257.2 25.855C256.579 24.6409 253.2 19.8677 250.484 16.0317C248.982 13.9082 247.684 12.0756 247.295 11.4732C245.603 8.82346 240.705 5.00585 234.293 9.53204C231.61 11.4224 229.897 14.566 229.713 17.9405C229.582 20.3478 230.275 22.402 231.619 23.5607C231.619 23.5607 231.619 23.563 231.619 23.5653C230.483 25.7603 230.737 29.054 230.737 33.2432C230.737 39.422 230.742 44.8969 230.744 52.3174C231.164 52.1351 231.622 52.0381 232.105 52.0381C232.749 52.0381 233.351 52.2135 233.866 52.5205C233.866 43.9367 233.878 32.6062 233.962 29.9219C233.967 29.8157 233.974 29.7187 233.981 29.6241H233.976C233.976 29.6241 233.981 29.601 233.981 29.5918C233.985 29.571 233.985 29.5479 233.988 29.5226C233.992 29.4464 233.999 29.3656 234.009 29.2894C234.123 28.2854 234.464 27.683 234.839 27.2791C236.029 25.9888 237.817 24.934 240.094 24.7494C242.642 24.5417 244.138 22.529 244.721 21.5365C244.875 21.2526 245.218 21.1441 245.489 21.2388C245.736 21.3219 245.981 21.5157 245.694 21.9589C245.239 22.6098 244.523 23.5261 243.823 24.1262C242.705 25.0864 243.482 25.7049 247.925 25.3103C252.365 24.9202 253.816 24.477 253.497 25.031C253.182 25.5872 246.767 26.6374 242.696 26.1943C239.466 25.8411 237.392 26.6928 236.713 27.7799C237.14 28.1031 237.408 28.2969 237.474 28.3408C240.939 31.159 245.176 34.4088 247.26 35.669C247.918 36.066 248.706 36.2553 249.553 36.2553C251.338 36.2576 253.716 35.0689 255.235 33.5548C257.421 31.3667 258.285 27.9854 257.197 25.8619M245.01 20.9987C241.548 20.5232 237.985 20.2209 235.432 20.8395C233.957 21.1949 232.933 21.8112 232.224 22.6582C231.199 21.7304 230.651 19.997 230.758 18.012C230.924 14.9838 232.464 12.1633 234.874 10.4622C236.883 9.04503 238.659 8.53263 240.185 8.53263C242.574 8.53263 244.331 9.80209 245.36 10.8269C246.308 11.8148 246.896 13.4558 246.938 15.2585C246.984 17.3635 246.305 19.3761 245.013 21.0033M246.221 21.1741C247.418 19.4431 248.041 17.3819 247.99 15.2331C247.983 14.9053 247.957 14.5868 247.92 14.2706C248.424 14.9907 249.014 15.8239 249.64 16.7103C250.853 18.4183 252.274 20.4286 253.501 22.192C251.637 22.0604 248.989 21.585 246.221 21.1741Z" fill="white"/>
<path d="M230.975 112.017C230.975 112.682 230.816 113.164 230.499 113.469C230.184 113.771 229.776 113.923 229.276 113.923H228.702C228.203 113.923 227.797 113.771 227.48 113.469C227.162 113.164 227.006 112.682 227.006 112.017C227.006 111.352 227.162 110.87 227.48 110.565C227.797 110.263 228.203 110.11 228.702 110.11H229.276C229.776 110.11 230.184 110.263 230.499 110.565C230.816 110.87 230.975 111.352 230.975 112.017Z" fill="white"/>
<path d="M235.518 112.017C235.518 112.682 235.359 113.164 235.044 113.469C234.727 113.771 234.321 113.923 233.821 113.923H233.245C232.748 113.923 232.34 113.771 232.025 113.469C231.707 113.164 231.549 112.682 231.549 112.017C231.549 111.352 231.707 110.87 232.025 110.565C232.34 110.263 232.748 110.11 233.245 110.11H233.821C234.321 110.11 234.727 110.263 235.044 110.565C235.359 110.87 235.518 111.352 235.518 112.017Z" fill="white"/>
<path d="M258.182 86.752V101.831C258.182 103.862 257.785 105.36 256.989 106.327C256.194 107.294 254.836 107.788 252.92 107.807H247.714C246.142 107.807 244.942 107.497 244.119 106.881C243.293 106.265 242.747 105.293 242.478 103.966H242.306C242.056 105.293 241.615 106.265 240.983 106.881C240.665 107.19 240.278 107.421 239.818 107.576C239.359 107.73 238.827 107.807 238.222 107.807H235.145C233.609 107.807 232.445 107.497 231.649 106.881C230.854 106.265 230.322 105.293 230.053 103.966H229.881C229.612 105.293 229.153 106.265 228.502 106.881C228.175 107.19 227.774 107.421 227.3 107.576C226.824 107.73 226.276 107.807 225.653 107.807H220.015C219.633 110.14 218.76 111.86 217.4 112.97C216.037 114.08 214.1 114.634 211.59 114.634C208.923 114.634 206.909 113.955 205.549 112.6C204.186 111.243 203.507 109.323 203.507 106.839C203.507 105.985 203.626 105.023 203.866 103.952C204.107 102.879 204.436 101.84 204.858 100.836L207.621 101.632C207.236 102.447 206.935 103.273 206.713 104.107C206.494 104.942 206.384 105.662 206.384 106.269C206.384 107.465 206.743 108.388 207.462 109.044C208.181 109.697 209.172 110.025 210.439 110.025H212.74C213.487 110.025 214.119 109.935 214.637 109.755C215.155 109.575 215.573 109.281 215.888 108.873C216.205 108.464 216.436 107.933 216.578 107.28C216.723 106.625 216.795 105.824 216.795 104.875V86.752H220.246V103.539H227.379C228.912 103.539 229.68 102.874 229.68 101.547V97.4777H232.844V101.547C232.844 102.874 233.514 103.539 234.858 103.539H239.804C241.337 103.539 242.105 102.874 242.105 101.547V86.752H245.556V101.547C245.556 102.874 246.228 103.539 247.57 103.539H252.92C253.648 103.539 254.131 103.4 254.371 103.126C254.612 102.851 254.731 102.419 254.731 101.831V86.752H258.182Z" fill="white"/>
<path d="M265.086 86.752H261.635V107.807H265.086V86.752Z" fill="white"/>
<path d="M259.276 63.9644H259.852C260.352 63.9644 260.758 63.812 261.075 63.5097C261.392 63.2073 261.549 62.7226 261.549 62.0579C261.549 61.3931 261.39 60.9107 261.075 60.6061C260.758 60.3037 260.352 60.1514 259.852 60.1514H259.276C258.777 60.1514 258.371 60.3037 258.053 60.6061C257.736 60.9107 257.58 61.3931 257.58 62.0579C257.58 62.7226 257.738 63.205 258.053 63.5097C258.371 63.8143 258.777 63.9644 259.276 63.9644Z" fill="white"/>
<path d="M232.155 56.793H232.732C233.231 56.793 233.637 56.6406 233.954 56.3383C234.272 56.0359 234.428 55.5512 234.428 54.8865C234.428 54.2217 234.269 53.7393 233.954 53.4347C233.637 53.1323 233.231 52.98 232.732 52.98H232.155C231.656 52.98 231.25 53.1323 230.933 53.4347C230.615 53.7393 230.459 54.2217 230.459 54.8865C230.459 55.5512 230.618 56.0336 230.933 56.3383C231.25 56.6429 231.656 56.793 232.155 56.793Z" fill="white"/>
<path d="M262.599 60.6061C262.281 60.9107 262.125 61.3931 262.125 62.0579C262.125 62.7226 262.284 63.205 262.599 63.5097C262.916 63.8143 263.322 63.9644 263.821 63.9644H264.398C264.897 63.9644 265.303 63.812 265.62 63.5097C265.938 63.2073 266.094 62.7226 266.094 62.0579C266.094 61.3931 265.935 60.9107 265.62 60.6061C265.303 60.3037 264.897 60.1514 264.398 60.1514H263.821C263.322 60.1514 262.916 60.3037 262.599 60.6061Z" fill="white"/>
<path d="M261.548 59.8096H262.125C262.624 59.8096 263.03 59.6572 263.347 59.3549C263.665 59.0525 263.821 58.5678 263.821 57.9031C263.821 57.2383 263.662 56.7559 263.347 56.4513C263.03 56.1489 262.624 55.9966 262.125 55.9966H261.548C261.049 55.9966 260.643 56.1489 260.326 56.4513C260.008 56.7559 259.852 57.2383 259.852 57.9031C259.852 58.5678 260.011 59.0502 260.326 59.3549C260.643 59.6595 261.049 59.8096 261.548 59.8096Z" fill="white"/>
<path d="M269.601 66.9926C269.564 66.5102 269.496 65.9932 269.4 65.4438L269.169 63.992L266.036 64.5044L266.295 65.9562C266.39 66.5425 266.467 67.0411 266.523 67.4496C266.582 67.8558 266.61 68.1928 266.61 68.4582C266.61 68.966 266.533 69.3653 266.376 69.6538C266.337 69.7323 266.29 69.8039 266.236 69.8662C265.987 70.1616 265.66 70.307 265.259 70.307H264.972C264.491 70.307 264.113 70.127 263.835 69.7669C263.807 69.7323 263.782 69.6931 263.756 69.6538C263.53 69.2915 263.418 68.749 263.418 68.0312V66.2401H260.254V68.0312C260.254 68.7467 260.137 69.2868 259.904 69.6538C259.845 69.7461 259.78 69.8269 259.708 69.8962C259.344 70.247 258.749 70.4224 257.925 70.4224C257.426 70.4224 256.936 70.3509 256.457 70.2078C255.977 70.067 255.508 69.8916 255.048 69.6815L255.062 69.6538L256.054 67.6042L253.207 66.2401L252.085 68.5436C251.833 69.0629 251.499 69.4322 251.084 69.6538C251.058 69.67 251.032 69.6838 251.007 69.6954C250.556 69.9146 249.87 70.0231 248.951 70.0231H247.77C247.194 70.0231 246.739 69.9008 246.41 69.6538C245.974 69.3284 245.757 68.7883 245.757 68.0312V63.9643H242.595V68.0312C242.595 68.7883 242.345 69.3284 241.848 69.6538C241.473 69.9008 240.952 70.0231 240.292 70.0231H236.237L236.181 69.8823C236.258 69.8062 236.33 69.73 236.4 69.6538C237.011 69.0006 237.441 68.3128 237.69 67.5904C237.968 66.7848 238.108 66.0024 238.108 65.243C238.108 64.3913 237.973 63.5881 237.704 62.8403C237.436 62.0902 237.053 61.437 236.554 60.8761C236.055 60.3175 235.457 59.8767 234.757 59.5535C234.057 59.2304 233.285 59.0688 232.44 59.0688C231.596 59.0688 230.826 59.2304 230.126 59.5535C229.426 59.8767 228.826 60.3175 228.329 60.8761C227.83 61.437 227.447 62.0902 227.179 62.8403C226.908 63.5881 226.775 64.3913 226.775 65.243C226.775 66.0024 226.915 66.7848 227.193 67.5904C227.442 68.3128 227.872 69.0006 228.481 69.6538C228.553 69.73 228.625 69.8062 228.702 69.8823L228.644 70.0231H224.705C224.045 70.0231 223.525 69.9008 223.149 69.6538C222.652 69.3284 222.402 68.7883 222.402 68.0312V63.9643H219.238V68.0312C219.238 68.4305 219.138 68.7583 218.937 69.0145C218.737 69.2707 218.387 69.4738 217.887 69.6261C217.855 69.6354 217.82 69.6469 217.785 69.6538C217.295 69.79 216.641 69.8869 215.818 69.9377C214.936 69.9954 213.823 70.0231 212.481 70.0231H208.454C207.208 70.0231 206.162 69.9723 205.318 69.8662C204.881 69.8131 204.489 69.7415 204.139 69.6538C203.813 69.573 203.526 69.4784 203.276 69.3699C202.758 69.1414 202.385 68.8437 202.156 68.4721C201.925 68.1028 201.811 67.6435 201.811 67.0941C201.811 66.6187 201.902 66.0832 202.084 65.4854C202.266 64.8876 202.52 64.2667 202.844 63.6227L200.084 62.8264C199.72 63.7174 199.438 64.6175 199.235 65.5292C199.034 66.4386 198.934 67.2742 198.934 68.0312C198.934 68.6198 198.978 69.1576 199.067 69.6538C199.165 70.2008 199.316 70.6948 199.524 71.1333C199.916 71.9689 200.553 72.6451 201.435 73.1668C202.317 73.6884 203.472 74.0646 204.902 74.2908C206.33 74.5193 208.09 74.6324 210.18 74.6324C211.732 74.6324 213.06 74.5609 214.163 74.4201C215.265 74.277 216.182 74.0392 216.91 73.7069C217.638 73.3768 218.205 72.9452 218.606 72.4143C219.01 71.8835 219.287 71.228 219.441 70.4501H219.614C219.882 71.7773 220.428 72.7513 221.252 73.3676C222.078 73.9838 223.228 74.2908 224.705 74.2908H226.661C227.697 74.2908 228.702 74.1592 229.68 73.8938C230.658 73.6284 231.589 73.1529 232.471 72.4697C233.353 73.1529 234.281 73.6284 235.259 73.8938C236.237 74.1592 237.245 74.2908 238.281 74.2908H238.568C239.191 74.2908 239.739 74.2146 240.215 74.06C240.689 73.9077 241.09 73.6769 241.414 73.3676C242.065 72.7513 242.527 71.7773 242.796 70.4501H242.968C243.237 71.7773 243.769 72.7513 244.564 73.3676C245.36 73.9838 246.524 74.2908 248.06 74.2908C249.21 74.2908 250.162 74.2054 250.92 74.0346C251.679 73.8638 252.353 73.4945 252.948 72.9244L253.552 73.266C254.434 73.7784 255.148 74.1339 255.694 74.3347C256.243 74.5332 256.793 74.6324 257.349 74.6324C258.212 74.6324 258.907 74.3139 259.435 73.6792C259.962 73.0444 260.3 72.0427 260.454 70.6786H260.627C260.877 72.0243 261.346 73.0214 262.036 73.6653C262.727 74.3093 263.754 74.6324 265.114 74.6324C266.668 74.6324 267.814 74.1339 268.551 73.1391C269.144 72.3405 269.498 71.1795 269.615 69.6538C269.645 69.2776 269.659 68.8783 269.659 68.4582C269.659 67.9666 269.641 67.4773 269.601 66.9926ZM230.226 67.932C229.727 67.3342 229.479 66.6579 229.479 65.8985C229.479 65.1392 229.748 64.4767 230.284 64.0197C230.821 63.565 231.481 63.3365 232.268 63.3365H232.613C233.399 63.3365 234.062 63.565 234.599 64.0197C235.135 64.4767 235.404 65.1022 235.404 65.8985C235.404 66.6948 235.154 67.3342 234.657 67.932C234.158 68.5298 233.418 69.1045 232.44 69.6538C231.463 69.1045 230.725 68.5298 230.226 67.932Z" fill="white"/>
<path d="M248.433 78.5009C248.433 79.1656 248.274 79.6503 247.957 79.9527C247.642 80.2573 247.234 80.4074 246.737 80.4074H246.16C245.661 80.4074 245.255 80.2573 244.938 79.9527C244.623 79.6503 244.464 79.1656 244.464 78.5009C244.464 77.8361 244.623 77.3537 244.938 77.0514C245.255 76.7467 245.661 76.5967 246.16 76.5967H246.737C247.234 76.5967 247.642 76.7467 247.957 77.0514C248.274 77.3537 248.433 77.8384 248.433 78.5009Z" fill="white"/>
<path d="M243.887 78.5009C243.887 79.1656 243.729 79.6503 243.414 79.9527C243.096 80.2573 242.69 80.4074 242.191 80.4074H241.615C241.118 80.4074 240.709 80.2573 240.394 79.9527C240.077 79.6503 239.918 79.1656 239.918 78.5009C239.918 77.8361 240.077 77.3537 240.394 77.0514C240.709 76.7467 241.118 76.5967 241.615 76.5967H242.191C242.69 76.5967 243.096 76.7467 243.414 77.0514C243.729 77.3537 243.887 77.8384 243.887 78.5009Z" fill="white"/>
<path d="M207.879 63.9644H208.456C208.955 63.9644 209.361 63.812 209.678 63.5097C209.996 63.2073 210.152 62.7226 210.152 62.0579C210.152 61.3931 209.993 60.9107 209.678 60.6061C209.361 60.3037 208.955 60.1514 208.456 60.1514H207.879C207.38 60.1514 206.974 60.3037 206.657 60.6061C206.339 60.9107 206.183 61.3931 206.183 62.0579C206.183 62.7226 206.342 63.205 206.657 63.5097C206.974 63.8143 207.38 63.9644 207.879 63.9644Z" fill="white"/>
<path d="M212.425 63.9644H213.001C213.501 63.9644 213.907 63.812 214.224 63.5097C214.541 63.2073 214.698 62.7226 214.698 62.0579C214.698 61.3931 214.539 60.9107 214.224 60.6061C213.907 60.3037 213.501 60.1514 213.001 60.1514H212.425C211.926 60.1514 211.52 60.3037 211.202 60.6061C210.885 60.9107 210.729 61.3931 210.729 62.0579C210.729 62.7226 210.887 63.205 211.202 63.5097C211.52 63.8143 211.926 63.9644 212.425 63.9644Z" fill="white"/>
<path d="M204.713 45.901C204.713 46.0649 205.399 46.1479 205.808 46.178C205.838 46.5796 205.92 47.2605 206.085 47.2605C206.251 47.2605 206.333 46.5819 206.365 46.178C206.771 46.1479 207.46 46.0672 207.46 45.901C207.46 45.7348 206.771 45.6563 206.365 45.624C206.335 45.2224 206.253 44.5415 206.085 44.5415C205.917 44.5415 205.838 45.2224 205.808 45.624C205.402 45.654 204.713 45.7348 204.713 45.901Z" fill="#FBC451"/>
<path d="M244.84 51.1632C244.84 51.3271 245.526 51.4102 245.934 51.4402C245.965 51.8418 246.046 52.5227 246.212 52.5227C246.378 52.5227 246.459 51.8441 246.492 51.4402C246.898 51.4102 247.586 51.3294 247.586 51.1632C247.586 50.997 246.898 50.9185 246.492 50.8862C246.462 50.4846 246.38 49.8037 246.212 49.8037C246.044 49.8037 245.965 50.4846 245.934 50.8862C245.528 50.9162 244.84 50.997 244.84 51.1632Z" fill="#FBC451"/>
<path d="M208.178 97.2794C208.178 97.4433 208.864 97.5264 209.273 97.5564C209.303 97.958 209.385 98.6389 209.55 98.6389C209.716 98.6389 209.798 97.9603 209.83 97.5564C210.236 97.5264 210.925 97.4456 210.925 97.2794C210.925 97.1132 210.236 97.0347 209.83 97.0024C209.8 96.6008 209.718 95.9199 209.55 95.9199C209.382 95.9199 209.303 96.6008 209.273 97.0024C208.867 97.0324 208.178 97.1132 208.178 97.2794Z" fill="#FBC451"/>
<path d="M195.926 81.3855C195.926 81.6648 197.095 81.8032 197.788 81.8563C197.842 82.5395 197.98 83.6982 198.264 83.6982C198.549 83.6982 198.687 82.5418 198.74 81.8563C199.431 81.8056 200.602 81.6671 200.602 81.3855C200.602 81.1039 199.431 80.9677 198.74 80.9146C198.687 80.2291 198.549 79.0728 198.264 79.0728C197.98 79.0728 197.842 80.2291 197.788 80.9146C197.098 80.9677 195.926 81.1039 195.926 81.3855Z" fill="#FBC451"/>
<path d="M267.324 81.3855C267.324 81.6648 268.493 81.8032 269.186 81.8563C269.24 82.5395 269.378 83.6982 269.662 83.6982C269.947 83.6982 270.085 82.5418 270.138 81.8563C270.829 81.8056 272 81.6671 272 81.3855C272 81.1039 270.829 80.9677 270.138 80.9146C270.085 80.2291 269.947 79.0728 269.662 79.0728C269.378 79.0728 269.24 80.2291 269.186 80.9146C268.496 80.9677 267.324 81.1039 267.324 81.3855Z" fill="#FBC451"/>
<defs>
<linearGradient id="paint0_linear_120_1756" x1="7.16602" y1="24.039" x2="125.068" y2="24.039" gradientUnits="userSpaceOnUse">
<stop stop-color="#FBECB3"/>
<stop offset="0.5" stop-color="#E7CB7A"/>
<stop offset="1" stop-color="#C4A557"/>
</linearGradient>
</defs>
</svg>
