<svg width="218" height="52" viewBox="0 0 218 52" fill="none" xmlns="http://www.w3.org/2000/svg">
<path d="M23.1773 34.5048C22.2068 35.2692 21.0351 35.7293 19.8055 35.8349C17.9323 36.109 16.0465 35.4075 14.8094 33.9743C13.8037 32.7699 13.2882 31.2059 12.3076 29.9613C10.7965 27.8844 8.26953 26.8058 5.72498 27.1502C1.91318 27.8668 -0.596178 31.5353 0.122935 35.3471C0.30397 36.3101 0.683642 37.2228 1.23932 38.03C5.31765 43.8633 14.4876 42.8525 19.1945 38.8119C20.7006 37.5522 22.0408 36.1014 23.1748 34.4998" fill="white"/>
<path d="M194.165 34.5051C195.133 35.2719 196.305 35.7371 197.537 35.8402C199.41 36.1168 201.296 35.4153 202.533 33.9821C203.539 32.7752 204.057 31.2137 205.035 29.9691C206.546 27.8922 209.073 26.8136 211.618 27.158C215.427 27.8771 217.934 31.5481 217.215 35.3574C217.034 36.3204 216.651 37.2332 216.096 38.0403C212.02 43.8736 202.85 42.8629 198.146 38.8223C196.634 37.56 195.294 36.1092 194.158 34.5025" fill="white"/>
<path d="M177.362 3.39453H165.079C163.744 3.50516 162.69 4.57629 162.605 5.91394C162.59 7.32954 163.668 8.51884 165.079 8.63953H177.362C178.697 8.5289 179.75 7.45777 179.836 6.12012C179.851 4.70452 178.772 3.51522 177.362 3.39453Z" fill="white"/>
<path d="M100.656 29.5667C100.495 28.8853 100.394 28.1913 100.349 27.4923C100.342 26.4966 100.342 25.0911 100.342 23.8012C100.467 19.3457 101.3 11.5084 95.2549 11.5084C91.1741 11.5084 88.7553 14.9405 88.0688 16.067C87.9708 12.9366 85.5017 10.6636 81.7276 10.6636C80.2315 10.7139 78.831 11.4154 77.8906 12.5795C79.437 13.2685 80.3799 14.8601 80.2391 16.5497C80.2642 18.8102 80.2391 29.8106 80.2391 29.8559C80.2491 31.9529 81.9589 33.645 84.0559 33.635C84.081 33.635 84.1062 33.635 84.1313 33.635C86.2384 33.7079 88.006 32.0585 88.0764 29.9514C88.0764 29.9187 88.0764 29.886 88.0764 29.8559V20.0975C88.4158 18.5034 89.3135 16.8741 90.6662 16.8741C92.4212 16.8741 92.5193 18.8253 92.5268 18.8253L92.5193 28.2693C92.5294 28.566 92.5646 28.8627 92.6199 29.1543C92.7003 29.6321 92.8512 30.0922 93.07 30.5247C94.2215 32.6116 96.482 33.8386 98.8606 33.6677C100.354 33.6149 101.752 32.9184 102.692 31.7542C101.737 31.3393 100.995 30.5473 100.648 29.5642" fill="white"/>
<path d="M158.753 29.5666C158.589 28.8852 158.489 28.1913 158.446 27.4923L158.454 4.11604C158.454 1.84304 156.611 0 154.338 0C152.065 0 150.222 1.84304 150.222 4.11604V24.8195C150.242 26.6851 150.058 28.586 150.938 30.3033C152.155 32.4632 154.473 33.7631 156.95 33.6726C158.449 33.6223 159.849 32.9233 160.79 31.7566C159.834 31.3418 159.095 30.5472 158.745 29.5666" fill="white"/>
<path d="M66.7641 11.3022C60.5863 11.3022 55.5776 16.3109 55.5776 22.4887C55.5776 28.6666 60.5863 33.6752 66.7641 33.6752C72.942 33.6752 77.9506 28.6666 77.9506 22.4887C77.9506 16.3109 72.942 11.3022 66.7641 11.3022ZM66.8471 28.9205V28.9256H66.7993V28.9205C64.6872 28.8828 63.6287 26.4539 63.6287 22.4862C63.6287 18.5185 64.9689 16.0947 66.7993 16.0494H66.8471C68.6751 16.0921 70.0177 18.5236 70.0177 22.4862C70.0177 26.4489 68.9617 28.8803 66.8471 28.9205Z" fill="white"/>
<path d="M125.814 29.5666C125.653 28.8852 125.55 28.1913 125.513 27.4923V4.11604C125.513 1.84304 123.67 0 121.397 0C119.124 0 117.28 1.84304 117.28 4.11604L117.263 15.1919C115.789 12.9616 113.328 11.5812 110.655 11.4832C101.201 11.4832 100.603 28.317 107.087 32.4833C109.109 33.6399 111.497 33.9743 113.758 33.4161C115.199 33.0415 117.469 31.6259 117.834 29.9362C117.886 30.0594 117.944 30.1826 118.005 30.3058C119.222 32.4657 121.542 33.7656 124.019 33.6751C125.518 33.6248 126.918 32.9258 127.858 31.7592C126.903 31.3443 126.164 30.5497 125.814 29.5691M113.552 28.2089H113.504C111.392 28.1787 110.336 26.0591 110.336 22.6043C110.336 19.1495 111.676 17.0375 113.504 16.9972H113.552C115.382 17.0349 116.725 19.1521 116.725 22.6043C116.725 26.0565 115.666 28.1762 113.552 28.2089Z" fill="white"/>
<path d="M147.232 26.7507C147.232 26.7507 146.025 28.4052 141.341 28.4052C136.656 28.4052 135.653 24.7644 135.653 24.7644C142.48 24.7644 148.203 24.3067 148.203 18.7826C148.203 13.2585 141.957 11.4331 138.253 11.4331C132.138 11.4331 127.67 16.306 127.67 22.7453C127.519 28.6265 132.166 33.5169 138.047 33.6678C138.137 33.6678 138.228 33.6703 138.318 33.6703C146.825 33.6703 147.232 26.7482 147.232 26.7482V26.7507ZM135.211 21.2115C135.45 19.4464 135.875 17.2237 137.461 16.1953C138.457 15.5944 139.749 15.9162 140.35 16.9094C140.541 17.2262 140.647 17.5908 140.652 17.9604C140.717 19.5621 139.576 20.9601 137.994 21.2166C137.071 21.3197 136.139 21.3171 135.216 21.2115" fill="white"/>
<path d="M180.165 26.7507C180.165 26.7507 178.958 28.4052 174.274 28.4052C169.59 28.4052 168.586 24.7644 168.586 24.7644C175.413 24.7644 181.136 24.3067 181.136 18.7826C181.136 13.2585 174.89 11.4331 171.186 11.4331C165.071 11.4331 160.603 16.306 160.603 22.7453C160.452 28.6265 165.099 33.5169 170.98 33.6678C171.071 33.6678 171.161 33.6703 171.252 33.6703C179.758 33.6703 180.165 26.7482 180.165 26.7482V26.7507ZM168.144 21.2115C168.383 19.4464 168.808 17.2237 170.394 16.1953C171.39 15.5944 172.682 15.9162 173.283 16.9094C173.474 17.2262 173.58 17.5908 173.585 17.9604C173.65 19.5621 172.509 20.9601 170.927 21.2166C170.004 21.3197 169.072 21.3171 168.149 21.2115" fill="white"/>
<path d="M195.611 27.3491H190.922C192.659 26.1573 194.319 24.8548 195.888 23.4493C198.903 20.8922 204.319 17.2036 202.739 12.4237V12.4564C202.546 11.7524 202.139 11.1238 201.573 10.6611C201.301 11.2897 200.778 11.7775 200.132 12.0063C199.685 12.1195 199.227 12.1949 198.767 12.2276C198.392 12.2351 185.657 12.2276 185.657 12.2276C183.957 12.215 182.549 13.5451 182.466 15.2449C182.484 16.9144 183.851 18.2521 185.518 18.237C185.531 18.237 185.541 18.237 185.554 18.237L192.984 18.2847C189.539 20.2057 185.428 22.4812 183.338 25.9536C182.147 27.9475 180.869 31.0201 181.355 33.3735C184.043 31.4626 187.374 30.6781 190.633 31.1885C191.915 31.4978 193.14 32.0233 194.248 32.7399C200.434 36.6096 204.15 29.0413 201.193 25.7072C201.193 25.7072 199.509 27.3491 195.606 27.3491" fill="white"/>
<path d="M56.1808 32.0559C52.3866 27.8972 51.1973 20.9801 50.9685 16.3813C50.7673 12.4086 50.981 5.52669 54.1115 3.53279C52.8794 2.28565 51.1772 1.61431 49.4246 1.68472C45.897 1.68472 44.1947 4.03566 42.9878 5.72533C42.588 6.27849 36.6541 14.4754 36.6541 14.4754C36.6541 14.4754 31.663 6.75371 31.0495 5.8259C30.2022 4.54608 28.6131 2.19514 25.8247 1.78781C24.6228 1.6118 21.5049 1.45591 19.8102 3.78171C22.7345 6.12009 22.6616 12.0792 22.0254 16.1474C20.1195 28.3573 14.9248 29.4812 14.9248 29.4812C17.5825 36.6673 24.4392 33.8286 26.3778 28.0983C27.6576 24.0954 28.4145 19.9467 28.6282 15.7502L36.1487 27.2862C36.1487 27.2862 44.6649 15.7854 44.6649 15.7954C43.2619 36.1368 50.2468 41.9023 56.3568 41.9023C59.9624 41.8545 63.1909 39.6519 64.5537 36.3103C61.3152 36.0463 58.308 34.5225 56.1808 32.066" fill="white"/>
<path d="M75.2627 38.671C75.3331 38.9626 75.3758 39.2593 75.3934 39.556V50.3226C75.4664 51.2203 76.1855 51.9268 77.0831 51.9846C78.0335 51.9947 78.8306 51.2705 78.9136 50.3226V40.7001C78.9966 39.9055 78.8935 39.1009 78.6068 38.3542C78.0838 37.4314 77.0932 36.8757 76.0321 36.9134C75.3909 36.9335 74.79 37.2328 74.3877 37.7331C74.7975 37.9116 75.1143 38.2511 75.2627 38.671Z" fill="white"/>
<path d="M186.81 50.2298C186.74 49.9381 186.697 49.6414 186.68 49.3447V38.5781C186.607 37.683 185.888 36.9765 184.99 36.9161C184.04 36.9061 183.243 37.6302 183.16 38.5781V48.2007C183.077 48.9952 183.18 49.7998 183.466 50.5466C183.989 51.4694 184.98 52.025 186.041 51.9873C186.682 51.9672 187.283 51.668 187.686 51.1676C187.276 50.9891 186.959 50.6497 186.81 50.2298Z" fill="white"/>
<path d="M123.144 42.3747C121.794 42.4677 120.584 43.2346 119.926 44.4164L119.916 44.4239V43.4936C119.835 42.6135 119.111 41.9296 118.226 41.9045C117.291 41.8643 116.486 42.5607 116.398 43.4936V50.3201C116.471 51.2152 117.19 51.9243 118.088 51.9821C119.038 51.9922 119.835 51.2681 119.916 50.3201V46.2343L119.931 46.2242C120.082 45.5101 120.484 44.7835 121.092 44.7835C121.879 44.7835 121.922 45.6585 121.925 45.6585L121.917 50.3252C121.99 51.2203 122.709 51.9293 123.607 51.9872C124.557 51.9972 125.354 51.2731 125.435 50.3252V47.8887C125.435 45.3819 125.696 42.3722 123.152 42.3822" fill="white"/>
<path d="M168.117 42.3747C166.766 42.4677 165.557 43.2346 164.898 44.4164L164.888 44.4239V43.4936C164.808 42.6135 164.084 41.9296 163.199 41.9045C162.263 41.8643 161.459 42.5607 161.371 43.4936V50.3201C161.444 51.2178 162.163 51.9243 163.06 51.9821C164.011 51.9922 164.808 51.2681 164.888 50.3201V46.2343L164.903 46.2242C165.054 45.5101 165.456 44.7835 166.065 44.7835C166.849 44.7835 166.895 45.6585 166.897 45.6585L166.89 50.3252C166.963 51.2228 167.682 51.9293 168.579 51.9872C169.53 51.9972 170.327 51.2731 170.407 50.3252V47.8887C170.407 45.3819 170.669 42.3722 168.124 42.3822" fill="white"/>
<path d="M87.4224 42.3749C86.0721 42.4679 84.8627 43.2348 84.204 44.4166L84.1939 44.4241V43.4938C84.1134 42.6112 83.3893 41.9298 82.5042 41.9047C81.5689 41.8619 80.7643 42.5609 80.6763 43.4938V50.3203C80.7492 51.2154 81.4683 51.9245 82.3659 51.9823C83.3164 51.9899 84.1109 51.2683 84.1939 50.3203V46.2345L84.209 46.2244C84.3598 45.5103 84.7621 44.7837 85.3706 44.7837C86.1576 44.7837 86.2004 45.6587 86.2029 45.6587L86.1953 50.3254C86.2683 51.2205 86.9874 51.9295 87.885 51.9874C88.8354 51.9974 89.6325 51.2733 89.713 50.3254V47.8889C89.713 45.3821 89.9745 42.3724 87.4299 42.3824" fill="white"/>
<path d="M155.363 41.9351C152.595 41.9351 150.352 44.1779 150.352 46.9437C150.352 49.712 152.595 51.9549 155.363 51.9549C158.132 51.9549 160.374 49.712 160.374 46.9462C160.374 44.1779 158.132 41.9351 155.363 41.9351ZM155.401 49.8277H155.381C154.433 49.8101 153.96 48.7214 153.96 46.9487C153.96 45.1761 154.561 44.0849 155.381 44.0698H155.401C156.221 44.0899 156.819 45.1761 156.819 46.9487C156.819 48.7214 156.346 49.8126 155.401 49.8277Z" fill="white"/>
<path d="M136.649 43.3729C136.563 42.4325 135.806 41.6933 134.864 41.6329C133.868 41.6229 133.033 42.3797 132.948 43.3729C132.948 43.4408 132.938 43.5841 132.938 43.6092C132.276 42.611 131.172 41.99 129.976 41.9472C125.741 41.9472 125.472 49.4904 128.376 51.3611C129.282 51.879 130.353 52.0299 131.366 51.7784C132.035 51.5899 132.621 51.18 133.028 50.6143C133.269 51.3686 133.943 51.8991 134.733 51.957C135.726 51.967 136.561 51.2102 136.649 50.2195V43.3754M131.273 49.4451H131.253C130.305 49.43 129.832 48.4796 129.832 46.9332C129.832 45.3869 130.433 44.439 131.253 44.4214H131.273C132.093 44.439 132.696 45.3869 132.696 46.9332C132.696 48.4796 132.221 49.43 131.273 49.4451Z" fill="white"/>
<path d="M181.586 43.3729C181.503 42.4325 180.743 41.6933 179.801 41.6329C178.805 41.6229 177.973 42.3797 177.885 43.3729C177.885 43.4408 177.875 43.5841 177.875 43.6092C177.213 42.6085 176.112 41.99 174.915 41.9472C170.681 41.9472 170.412 49.4904 173.316 51.3611C174.221 51.879 175.292 52.0299 176.306 51.7784C176.974 51.5899 177.56 51.18 177.968 50.6143C178.209 51.3661 178.883 51.8941 179.67 51.9519C180.663 51.962 181.498 51.2052 181.586 50.2145V43.3704M176.213 49.4401H176.19C175.244 49.425 174.769 48.4745 174.769 46.9282C174.769 45.3819 175.37 44.4339 176.19 44.4163H176.213C177.032 44.4339 177.633 45.3819 177.633 46.9282C177.633 48.4745 177.158 49.425 176.213 49.4401Z" fill="white"/>
<path d="M149.249 44.3159C149.203 43.4484 148.522 42.7494 147.654 42.684C147.604 42.6765 147.554 42.6715 147.506 42.6689C146.616 42.6689 145.862 43.3227 145.733 44.2027V47.4463C145.743 48.4596 145.733 50.285 145.733 50.3076C145.779 51.1751 146.46 51.8741 147.328 51.9395C147.378 51.947 147.428 51.952 147.478 51.9546C148.368 51.9546 149.123 51.3008 149.251 50.4208V47.7103C149.238 46.697 149.251 44.336 149.251 44.3159" fill="white"/>
<path d="M149.236 39.9286C149.236 40.8916 148.454 41.671 147.493 41.671C146.53 41.671 145.751 40.8916 145.751 39.9311C145.751 38.9681 146.53 38.1861 147.491 38.1836C148.454 38.1836 149.236 38.9656 149.233 39.9286" fill="white"/>
<path d="M113.595 42.2544C112.551 42.2972 112.033 43.0766 111.322 44.0522C111.322 44.0598 111.322 43.5996 111.322 43.582C111.249 42.6869 110.53 41.9804 109.635 41.92C108.684 41.91 107.887 42.6341 107.807 43.582V50.3382C107.88 51.2333 108.599 51.9424 109.496 52.0002C110.434 52.0077 111.226 51.3012 111.322 50.3658H111.329V46.0864C111.382 45.4578 111.656 44.6758 112.162 44.6783C112.876 44.6858 112.136 46.4107 113.776 46.4107C116.124 46.4107 116.376 42.1388 113.6 42.2519" fill="white"/>
<path d="M106.419 48.8493C106.419 48.8493 105.878 49.5911 103.776 49.5911C102.655 49.6866 101.606 49.0178 101.224 47.9593C104.286 47.9593 106.854 47.7531 106.854 45.2739C106.854 42.7947 104.053 41.9775 102.391 41.9775C99.743 41.9977 97.6158 44.16 97.6334 46.8052C97.6334 46.8881 97.6359 46.9686 97.641 47.0516C97.5731 49.6892 99.6575 51.8842 102.295 51.9521C102.335 51.9521 102.376 51.9521 102.418 51.9521C106.233 51.9521 106.416 48.8519 106.416 48.8519V48.8468L106.419 48.8493ZM101.023 46.3651C101.03 45.5077 101.397 44.6906 102.034 44.1148C102.479 43.8457 103.059 43.9865 103.328 44.4341C103.414 44.5774 103.462 44.7408 103.464 44.9068C103.492 45.6259 102.982 46.252 102.27 46.3677C101.855 46.4154 101.438 46.4154 101.023 46.3677" fill="white"/>
<path d="M97.4321 50.1042C96.9342 51.1251 95.9536 51.8216 94.8272 51.9573C93.1626 51.897 91.7998 50.6096 91.6515 48.9501C91.6515 48.9325 91.6414 46.3729 91.6339 44.2331H91.1612C90.779 44.2331 90.4697 43.9214 90.4697 43.5392C90.4697 43.5065 90.4697 43.4738 90.4773 43.4411C90.4446 43.0464 90.7388 42.6994 91.1335 42.6692C91.1612 42.6692 91.1863 42.6667 91.214 42.6692H91.6314V41.3743C91.7143 40.4314 92.5089 39.7098 93.4543 39.7198C94.3544 39.7751 95.0786 40.4767 95.1616 41.3743V42.6667H96.6501C97.0373 42.6742 97.3466 42.9961 97.339 43.3833C97.339 43.4084 97.339 43.4311 97.334 43.4562C97.3742 43.8434 97.0926 44.1879 96.7079 44.2281C96.6727 44.2306 96.635 44.2331 96.5998 44.2306H95.159V48.1606C95.2093 49.2896 96.1673 50.1646 97.2963 50.1143C97.344 50.1143 97.3918 50.1093 97.4371 50.1042" fill="white"/>
<path d="M144.501 50.1042C144.004 51.125 143.023 51.8215 141.896 51.9573C140.232 51.8969 138.869 50.6095 138.721 48.9501C138.721 48.9325 138.711 46.3728 138.703 44.2331H138.231C137.848 44.2331 137.539 43.9238 137.539 43.5416C137.539 43.5089 137.539 43.4762 137.547 43.4436C137.514 43.0488 137.808 42.7018 138.203 42.6716C138.231 42.6716 138.256 42.6691 138.283 42.6716H138.701V41.3767C138.784 40.4338 139.578 39.7122 140.524 39.7223C141.421 39.7776 142.145 40.4791 142.231 41.3767V42.6691H143.719C144.107 42.6767 144.416 42.9985 144.408 43.3857C144.408 43.4109 144.408 43.4335 144.403 43.4586C144.444 43.8459 144.162 44.1903 143.775 44.2306C143.74 44.2331 143.704 44.2356 143.669 44.2331H142.228V48.1631C142.279 49.292 143.237 50.167 144.366 50.1167C144.413 50.1167 144.461 50.1117 144.506 50.1067" fill="white"/>
</svg>
