<svg width="36" height="36" viewBox="0 0 36 36" fill="none" xmlns="http://www.w3.org/2000/svg">
<path d="M17.6516 35.7064C7.91874 35.7064 0 27.7877 0 18.0549C0 8.32206 7.91874 0.40332 17.6516 0.40332C27.3844 0.40332 35.3031 8.32206 35.3031 18.0549C35.3031 27.7877 27.3844 35.7064 17.6516 35.7064ZM17.6516 0.726995C8.09939 0.726995 0.323675 8.50271 0.323675 18.0549C0.323675 27.607 8.09186 35.3828 17.6516 35.3828C27.2112 35.3828 34.9794 27.6146 34.9794 18.0549C34.9794 8.49518 27.2037 0.726995 17.6516 0.726995Z" fill="white"/>
<path d="M15.2879 27.4264H19.0591V17.9721H21.6936L21.9721 14.8106H19.0591V13.0116C19.0591 12.2664 19.2096 11.9728 19.9322 11.9728H21.9721V8.69092H19.3601C16.5525 8.69092 15.2879 9.9254 15.2879 12.2965V14.8182H13.3232V18.0248H15.2879V27.4339V27.4264Z" fill="#C9AA5C"/>
</svg>
