<svg width="36" height="36" viewBox="0 0 36 36" fill="none" xmlns="http://www.w3.org/2000/svg">
<path d="M17.6516 35.2956C7.91874 35.2956 0 27.3844 0 17.6516C0 7.91874 7.91874 0 17.6516 0C27.3844 0 35.3031 7.91874 35.3031 17.6516C35.3031 27.3844 27.3844 35.3031 17.6516 35.3031V35.2956ZM17.6516 0.323675C8.09939 0.323675 0.323675 8.09939 0.323675 17.6516C0.323675 27.2037 8.09186 34.9794 17.6516 34.9794C27.2112 34.9794 34.9794 27.2037 34.9794 17.6516C34.9794 8.09939 27.2037 0.323675 17.6516 0.323675Z" fill="white"/>
<path d="M17.6517 10.6814C19.9249 10.6814 20.1884 10.6889 21.0841 10.7341C21.9121 10.7717 22.3638 10.9072 22.6649 11.0276C23.0638 11.1782 23.3423 11.3664 23.6434 11.6599C23.9445 11.961 24.1251 12.2395 24.2757 12.6385C24.3886 12.9396 24.5316 13.3912 24.5693 14.2192C24.6069 15.115 24.622 15.3859 24.622 17.6517C24.622 19.9174 24.6144 20.1884 24.5693 21.0841C24.5316 21.9121 24.3961 22.3638 24.2757 22.6649C24.1251 23.0638 23.937 23.3423 23.6434 23.6434C23.3498 23.9445 23.0638 24.1251 22.6649 24.2757C22.3638 24.3886 21.9121 24.5316 21.0841 24.5693C20.1884 24.6069 19.9174 24.622 17.6517 24.622C15.3859 24.622 15.115 24.6144 14.2192 24.5693C13.3912 24.5316 12.9396 24.3961 12.6385 24.2757C12.2395 24.1251 11.961 23.937 11.6599 23.6434C11.3588 23.3423 11.1782 23.0638 11.0276 22.6649C10.9147 22.3638 10.7717 21.9121 10.7341 21.0841C10.6964 20.1884 10.6814 19.9174 10.6814 17.6517C10.6814 15.3859 10.6889 15.115 10.7341 14.2192C10.7717 13.3912 10.9072 12.9396 11.0276 12.6385C11.1782 12.2395 11.3664 11.961 11.6599 11.6599C11.961 11.3588 12.2395 11.1782 12.6385 11.0276C12.9396 10.9147 13.3912 10.7717 14.2192 10.7341C15.115 10.6964 15.3859 10.6814 17.6517 10.6814ZM17.6517 9.15332C15.3408 9.15332 15.0547 9.16085 14.1439 9.20601C13.2407 9.24365 12.6234 9.39419 12.0814 9.60496C11.5244 9.82325 11.0502 10.1093 10.576 10.5835C10.1018 11.0577 9.81572 11.532 9.59743 12.089C9.38667 12.6309 9.24365 13.2482 9.20601 14.1515C9.16085 15.0547 9.15332 15.3483 9.15332 17.6592C9.15332 19.9701 9.16085 20.2561 9.20601 21.1669C9.24365 22.0702 9.39419 22.6874 9.59743 23.2294C9.81572 23.7864 10.1018 24.2606 10.576 24.7349C11.0502 25.2091 11.5244 25.4951 12.0814 25.7134C12.6234 25.9242 13.2407 26.0672 14.1439 26.1124C15.0472 26.15 15.3408 26.1651 17.6517 26.1651C19.9625 26.1651 20.2486 26.1575 21.1594 26.1124C22.0627 26.0747 22.6799 25.9242 23.2219 25.7134C23.7789 25.4951 24.2531 25.2091 24.7273 24.7349C25.2016 24.2606 25.4876 23.7864 25.7059 23.2294C25.9167 22.6874 26.0597 22.0702 26.0973 21.1669C26.1349 20.2636 26.15 19.9701 26.15 17.6592C26.15 15.3483 26.1425 15.0623 26.0973 14.1515C26.0597 13.2482 25.9091 12.6309 25.7059 12.089C25.4876 11.532 25.2016 11.0577 24.7273 10.5835C24.2531 10.1093 23.7789 9.82325 23.2219 9.60496C22.6799 9.39419 22.0627 9.25118 21.1594 9.20601C20.2561 9.16837 19.9625 9.15332 17.6517 9.15332Z" fill="#C9AA5C"/>
<path d="M17.6515 13.2856C15.2427 13.2856 13.2856 15.2427 13.2856 17.6515C13.2856 20.0602 15.2427 22.0173 17.6515 22.0173C20.0602 22.0173 22.0173 20.0602 22.0173 17.6515C22.0173 15.2427 20.0602 13.2856 17.6515 13.2856ZM17.6515 20.4818C16.0858 20.4818 14.8212 19.2096 14.8212 17.6515C14.8212 16.0933 16.0933 14.8212 17.6515 14.8212C19.2096 14.8212 20.4818 16.0933 20.4818 17.6515C20.4818 19.2096 19.2096 20.4818 17.6515 20.4818Z" fill="#C9AA5C"/>
<path d="M23.2066 13.1126C23.2066 13.6771 22.7474 14.1363 22.1829 14.1363C21.6183 14.1363 21.1592 13.6771 21.1592 13.1126C21.1592 12.548 21.6183 12.0889 22.1829 12.0889C22.7474 12.0889 23.2066 12.548 23.2066 13.1126Z" fill="#C9AA5C"/>
</svg>
