<svg width="36" height="36" viewBox="0 0 36 36" fill="none" xmlns="http://www.w3.org/2000/svg">
<path d="M17.6516 35.2956C7.91874 35.2956 0 27.3844 0 17.6516C0 7.91874 7.91874 0 17.6516 0C27.3844 0 35.3031 7.91874 35.3031 17.6516C35.3031 27.3844 27.3844 35.3031 17.6516 35.3031V35.2956ZM17.6516 0.323675C8.09939 0.323675 0.323675 8.09939 0.323675 17.6516C0.323675 27.2037 8.09186 34.9794 17.6516 34.9794C27.2112 34.9794 34.9794 27.2037 34.9794 17.6516C34.9794 8.09939 27.2037 0.323675 17.6516 0.323675Z" fill="white"/>
<path d="M26.9404 12.9544C26.7145 12.1114 26.0597 11.4565 25.2241 11.2307C23.7111 10.8242 17.6441 10.8242 17.6441 10.8242C17.6441 10.8242 11.5771 10.8242 10.0641 11.2307C9.22858 11.4565 8.5737 12.1189 8.34788 12.9544C7.94141 14.475 7.94141 17.6515 7.94141 17.6515C7.94141 17.6515 7.94141 20.828 8.34788 22.3485C8.5737 23.1916 9.22858 23.8465 10.0641 24.0723C11.5771 24.4788 17.6441 24.4788 17.6441 24.4788C17.6441 24.4788 23.7111 24.4788 25.2241 24.0723C26.0597 23.8465 26.7145 23.1841 26.9404 22.3485C27.3468 20.828 27.3468 17.6515 27.3468 17.6515C27.3468 17.6515 27.3468 14.475 26.9404 12.9544ZM15.6644 20.5345V14.7685L20.7303 17.6515L15.6644 20.5345Z" fill="#C9AA5C"/>
</svg>
